<svg width="16" height="17" viewBox="0 0 16 17" fill="none" xmlns="http://www.w3.org/2000/svg">
<mask id="mask0_64_36278" style="mask-type:alpha" maskUnits="userSpaceOnUse" x="0" y="0" width="16" height="17">
<rect y="0.381836" width="16" height="16" fill="#D9D9D9"/>
</mask>
<g mask="url(#mask0_64_36278)">
<path d="M6.7966 7.78193C6.9656 7.78193 7.10843 7.72477 7.2251 7.61043C7.34176 7.4961 7.4001 7.35443 7.4001 7.18543C7.4001 7.01643 7.34293 6.8736 7.2286 6.75693C7.11426 6.64027 6.9726 6.58193 6.8036 6.58193C6.6346 6.58193 6.49176 6.6391 6.3751 6.75343C6.25843 6.86777 6.2001 7.00943 6.2001 7.17843C6.2001 7.34743 6.25726 7.49027 6.3716 7.60693C6.48593 7.7236 6.6276 7.78193 6.7966 7.78193ZM6.7966 10.1819C6.9656 10.1819 7.10843 10.1248 7.2251 10.0104C7.34176 9.8961 7.4001 9.75443 7.4001 9.58543C7.4001 9.41643 7.34293 9.2736 7.2286 9.15693C7.11426 9.04027 6.9726 8.98193 6.8036 8.98193C6.6346 8.98193 6.49176 9.0391 6.3751 9.15343C6.25843 9.26777 6.2001 9.40943 6.2001 9.57843C6.2001 9.74743 6.25726 9.89027 6.3716 10.0069C6.48593 10.1236 6.6276 10.1819 6.7966 10.1819ZM4.8001 7.58193C4.90676 7.58193 5.0001 7.54193 5.0801 7.46193C5.1601 7.38193 5.2001 7.2886 5.2001 7.18193C5.2001 7.07527 5.1601 6.98193 5.0801 6.90193C5.0001 6.82193 4.90676 6.78193 4.8001 6.78193C4.69343 6.78193 4.6001 6.82193 4.5201 6.90193C4.4401 6.98193 4.4001 7.07527 4.4001 7.18193C4.4001 7.2886 4.4401 7.38193 4.5201 7.46193C4.6001 7.54193 4.69343 7.58193 4.8001 7.58193ZM6.8001 11.9819C6.90676 11.9819 7.0001 11.9419 7.0801 11.8619C7.1601 11.7819 7.2001 11.6886 7.2001 11.5819C7.2001 11.4753 7.1601 11.3819 7.0801 11.3019C7.0001 11.2219 6.90676 11.1819 6.8001 11.1819C6.69343 11.1819 6.6001 11.2219 6.5201 11.3019C6.4401 11.3819 6.4001 11.4753 6.4001 11.5819C6.4001 11.6886 6.4401 11.7819 6.5201 11.8619C6.6001 11.9419 6.69343 11.9819 6.8001 11.9819ZM4.8001 9.98193C4.90676 9.98193 5.0001 9.94193 5.0801 9.86193C5.1601 9.78193 5.2001 9.6886 5.2001 9.58193C5.2001 9.47527 5.1601 9.38193 5.0801 9.30193C5.0001 9.22193 4.90676 9.18193 4.8001 9.18193C4.69343 9.18193 4.6001 9.22193 4.5201 9.30193C4.4401 9.38193 4.4001 9.47527 4.4001 9.58193C4.4001 9.6886 4.4401 9.78193 4.5201 9.86193C4.6001 9.94193 4.69343 9.98193 4.8001 9.98193ZM6.8001 5.58193C6.90676 5.58193 7.0001 5.54193 7.0801 5.46193C7.1601 5.38193 7.2001 5.2886 7.2001 5.18193C7.2001 5.07527 7.1601 4.98193 7.0801 4.90193C7.0001 4.82193 6.90676 4.78193 6.8001 4.78193C6.69343 4.78193 6.6001 4.82193 6.5201 4.90193C6.4401 4.98193 6.4001 5.07527 6.4001 5.18193C6.4001 5.2886 6.4401 5.38193 6.5201 5.46193C6.6001 5.54193 6.69343 5.58193 6.8001 5.58193ZM9.1966 7.78193C9.3656 7.78193 9.50843 7.72477 9.6251 7.61043C9.74176 7.4961 9.8001 7.35443 9.8001 7.18543C9.8001 7.01643 9.74293 6.8736 9.6286 6.75693C9.51426 6.64027 9.3726 6.58193 9.2036 6.58193C9.0346 6.58193 8.89176 6.6391 8.7751 6.75343C8.65843 6.86777 8.6001 7.00943 8.6001 7.17843C8.6001 7.34743 8.65726 7.49027 8.7716 7.60693C8.88593 7.7236 9.0276 7.78193 9.1966 7.78193ZM9.2001 5.58193C9.30676 5.58193 9.4001 5.54193 9.4801 5.46193C9.5601 5.38193 9.6001 5.2886 9.6001 5.18193C9.6001 5.07527 9.5601 4.98193 9.4801 4.90193C9.4001 4.82193 9.30676 4.78193 9.2001 4.78193C9.09343 4.78193 9.0001 4.82193 8.9201 4.90193C8.8401 4.98193 8.8001 5.07527 8.8001 5.18193C8.8001 5.2886 8.8401 5.38193 8.9201 5.46193C9.0001 5.54193 9.09343 5.58193 9.2001 5.58193ZM11.2001 9.98193C11.3068 9.98193 11.4001 9.94193 11.4801 9.86193C11.5601 9.78193 11.6001 9.6886 11.6001 9.58193C11.6001 9.47527 11.5601 9.38193 11.4801 9.30193C11.4001 9.22193 11.3068 9.18193 11.2001 9.18193C11.0934 9.18193 11.0001 9.22193 10.9201 9.30193C10.8401 9.38193 10.8001 9.47527 10.8001 9.58193C10.8001 9.6886 10.8401 9.78193 10.9201 9.86193C11.0001 9.94193 11.0934 9.98193 11.2001 9.98193ZM11.2001 7.58193C11.3068 7.58193 11.4001 7.54193 11.4801 7.46193C11.5601 7.38193 11.6001 7.2886 11.6001 7.18193C11.6001 7.07527 11.5601 6.98193 11.4801 6.90193C11.4001 6.82193 11.3068 6.78193 11.2001 6.78193C11.0934 6.78193 11.0001 6.82193 10.9201 6.90193C10.8401 6.98193 10.8001 7.07527 10.8001 7.18193C10.8001 7.2886 10.8401 7.38193 10.9201 7.46193C11.0001 7.54193 11.0934 7.58193 11.2001 7.58193ZM8.00476 14.7819C7.12388 14.7819 6.29454 14.6153 5.51676 14.2819C4.73899 13.9486 4.05843 13.4903 3.4751 12.9069C2.89176 12.3236 2.43343 11.6433 2.1001 10.8659C1.76676 10.0886 1.6001 9.25805 1.6001 8.37427C1.6001 7.49049 1.76676 6.66249 2.1001 5.89027C2.43343 5.11805 2.89176 4.44027 3.4751 3.85693C4.05843 3.2736 4.73876 2.81527 5.5161 2.48193C6.29343 2.1486 7.12399 1.98193 8.00776 1.98193C8.89154 1.98193 9.71954 2.1486 10.4918 2.48193C11.264 2.81527 11.9418 3.2736 12.5251 3.85693C13.1084 4.44027 13.5668 5.11927 13.9001 5.89393C14.2334 6.66871 14.4001 7.49649 14.4001 8.37727C14.4001 9.25816 14.2334 10.0875 13.9001 10.8653C13.5668 11.643 13.1084 12.3236 12.5251 12.9069C11.9418 13.4903 11.2628 13.9486 10.4881 14.2819C9.71332 14.6153 8.88554 14.7819 8.00476 14.7819ZM8.0001 13.5819C9.44454 13.5819 10.6723 13.0764 11.6834 12.0653C12.6945 11.0542 13.2001 9.82638 13.2001 8.38193C13.2001 6.93749 12.6945 5.70971 11.6834 4.6986C10.6723 3.68749 9.44454 3.18193 8.0001 3.18193C6.55565 3.18193 5.32788 3.68749 4.31676 4.6986C3.30565 5.70971 2.8001 6.93749 2.8001 8.38193C2.8001 9.82638 3.30565 11.0542 4.31676 12.0653C5.32788 13.0764 6.55565 13.5819 8.0001 13.5819ZM9.2001 11.9819C9.30676 11.9819 9.4001 11.9419 9.4801 11.8619C9.5601 11.7819 9.6001 11.6886 9.6001 11.5819C9.6001 11.4753 9.5601 11.3819 9.4801 11.3019C9.4001 11.2219 9.30676 11.1819 9.2001 11.1819C9.09343 11.1819 9.0001 11.2219 8.9201 11.3019C8.8401 11.3819 8.8001 11.4753 8.8001 11.5819C8.8001 11.6886 8.8401 11.7819 8.9201 11.8619C9.0001 11.9419 9.09343 11.9819 9.2001 11.9819ZM9.1966 10.1819C9.3656 10.1819 9.50843 10.1248 9.6251 10.0104C9.74176 9.8961 9.8001 9.75443 9.8001 9.58543C9.8001 9.41643 9.74293 9.2736 9.6286 9.15693C9.51426 9.04027 9.3726 8.98193 9.2036 8.98193C9.0346 8.98193 8.89176 9.0391 8.7751 9.15343C8.65843 9.26777 8.6001 9.40943 8.6001 9.57843C8.6001 9.74743 8.65726 9.89027 8.7716 10.0069C8.88593 10.1236 9.0276 10.1819 9.1966 10.1819Z" fill="#637381"/>
</g>
</svg>
