<svg width="16" height="17" viewBox="0 0 16 17" fill="none" xmlns="http://www.w3.org/2000/svg">
<mask id="mask0_64_36345" style="mask-type:alpha" maskUnits="userSpaceOnUse" x="0" y="0" width="16" height="17">
<rect y="0.381836" width="16" height="16" fill="#D9D9D9"/>
</mask>
<g mask="url(#mask0_64_36345)">
<path d="M7.1501 10.7819L11.1168 6.83193L10.2668 5.98193L7.1501 9.08193L5.73343 7.68193L4.88343 8.53193L7.1501 10.7819ZM8.0001 14.7819C7.12232 14.7819 6.29454 14.6153 5.51676 14.2819C4.73899 13.9486 4.05843 13.4903 3.4751 12.9069C2.89176 12.3236 2.43343 11.643 2.1001 10.8653C1.76676 10.0875 1.6001 9.25971 1.6001 8.38193C1.6001 7.49304 1.76676 6.66249 2.1001 5.89027C2.43343 5.11805 2.89176 4.44027 3.4751 3.85693C4.05843 3.2736 4.73899 2.81527 5.51676 2.48193C6.29454 2.1486 7.12232 1.98193 8.0001 1.98193C8.88899 1.98193 9.71954 2.1486 10.4918 2.48193C11.264 2.81527 11.9418 3.2736 12.5251 3.85693C13.1084 4.44027 13.5668 5.11805 13.9001 5.89027C14.2334 6.66249 14.4001 7.49304 14.4001 8.38193C14.4001 9.25971 14.2334 10.0875 13.9001 10.8653C13.5668 11.643 13.1084 12.3236 12.5251 12.9069C11.9418 13.4903 11.264 13.9486 10.4918 14.2819C9.71954 14.6153 8.88899 14.7819 8.0001 14.7819ZM8.0001 13.5819C9.44454 13.5819 10.6723 13.0764 11.6834 12.0653C12.6945 11.0542 13.2001 9.82638 13.2001 8.38193C13.2001 6.93749 12.6945 5.70971 11.6834 4.6986C10.6723 3.68749 9.44454 3.18193 8.0001 3.18193C6.55565 3.18193 5.32788 3.68749 4.31676 4.6986C3.30565 5.70971 2.8001 6.93749 2.8001 8.38193C2.8001 9.82638 3.30565 11.0542 4.31676 12.0653C5.32788 13.0764 6.55565 13.5819 8.0001 13.5819Z" fill="#4EAD13"/>
</g>
</svg>
