<svg width="14" height="14" viewBox="0 0 14 14" fill="none" xmlns="http://www.w3.org/2000/svg">
<path d="M3.8001 7.98193H10.2001V6.78193H3.8001V7.98193ZM7.00476 13.7819C6.12388 13.7819 5.29454 13.6153 4.51676 13.2819C3.73899 12.9486 3.05843 12.4903 2.4751 11.9069C1.89176 11.3236 1.43343 10.6433 1.1001 9.86594C0.766764 9.0886 0.600098 8.25805 0.600098 7.37427C0.600098 6.49049 0.766764 5.66249 1.1001 4.89027C1.43343 4.11805 1.89176 3.44027 2.4751 2.85693C3.05843 2.2736 3.73876 1.81527 4.5161 1.48193C5.29343 1.1486 6.12399 0.981934 7.00776 0.981934C7.89154 0.981934 8.71954 1.1486 9.49177 1.48193C10.264 1.81527 10.9418 2.2736 11.5251 2.85693C12.1084 3.44027 12.5668 4.11927 12.9001 4.89393C13.2334 5.66871 13.4001 6.49649 13.4001 7.37727C13.4001 8.25816 13.2334 9.08749 12.9001 9.86527C12.5668 10.643 12.1084 11.3236 11.5251 11.9069C10.9418 12.4903 10.2628 12.9486 9.4881 13.2819C8.71332 13.6153 7.88554 13.7819 7.00476 13.7819ZM7.0001 12.5819C8.44454 12.5819 9.67232 12.0764 10.6834 11.0653C11.6945 10.0542 12.2001 8.82638 12.2001 7.38193C12.2001 5.93749 11.6945 4.70971 10.6834 3.6986C9.67232 2.68749 8.44454 2.18193 7.0001 2.18193C5.55565 2.18193 4.32788 2.68749 3.31676 3.6986C2.30565 4.70971 1.8001 5.93749 1.8001 7.38193C1.8001 8.82638 2.30565 10.0542 3.31676 11.0653C4.32788 12.0764 5.55565 12.5819 7.0001 12.5819Z" fill="#DB2727"/>
</svg>
