<svg width="16" height="17" viewBox="0 0 16 17" fill="none" xmlns="http://www.w3.org/2000/svg">
<mask id="mask0_64_36318" style="mask-type:alpha" maskUnits="userSpaceOnUse" x="0" y="0" width="16" height="17">
<rect y="0.381836" width="16" height="16" fill="#D9D9D9"/>
</mask>
<g mask="url(#mask0_64_36318)">
<path d="M10.2334 11.2153L11.0834 10.3653L8.6001 7.88193V4.38193H7.4001V8.38193L10.2334 11.2153ZM8.0001 14.7819C7.1181 14.7819 6.28926 14.6153 5.5136 14.2819C4.73793 13.9486 4.05843 13.4903 3.4751 12.9069C2.89176 12.3236 2.43343 11.6433 2.1001 10.8659C1.76676 10.0886 1.6001 9.25805 1.6001 8.37427C1.6001 7.49049 1.76676 6.65971 2.1001 5.88193C2.43343 5.10416 2.89176 4.42638 3.4751 3.8486C4.05843 3.27082 4.73876 2.81527 5.5161 2.48193C6.29343 2.1486 7.12399 1.98193 8.00776 1.98193C8.89154 1.98193 9.72238 2.14993 10.5003 2.48593C11.278 2.82193 11.9547 3.27793 12.5301 3.85393C13.1054 4.42993 13.5609 5.10727 13.8966 5.88593C14.2323 6.6646 14.4001 7.4966 14.4001 8.38193C14.4001 9.26393 14.2334 10.0928 13.9001 10.8684C13.5668 11.6441 13.1112 12.3236 12.5334 12.9069C11.9557 13.4903 11.2772 13.9486 10.4979 14.2819C9.71871 14.6153 8.8861 14.7819 8.0001 14.7819ZM8.0081 13.5819C9.44665 13.5819 10.6717 13.0736 11.6831 12.0569C12.6944 11.0403 13.2001 9.8126 13.2001 8.37393C13.2001 6.93538 12.6944 5.71038 11.6831 4.69893C10.6717 3.6876 9.44665 3.18193 8.0081 3.18193C6.56943 3.18193 5.34176 3.6876 4.3251 4.69893C3.30843 5.71038 2.8001 6.93538 2.8001 8.37393C2.8001 9.8126 3.30843 11.0403 4.3251 12.0569C5.34176 13.0736 6.56943 13.5819 8.0081 13.5819Z" fill="#637381"/>
</g>
</svg>
